<svg width="308" height="107" xmlns="http://www.w3.org/2000/svg" xmlns:xlink="http://www.w3.org/1999/xlink" xml:space="preserve" overflow="hidden"><defs><clipPath id="clip0"><rect x="486" y="136" width="308" height="107"/></clipPath></defs><g clip-path="url(#clip0)" transform="translate(-486 -136)"><path d="M923.986 228.162C921.463 224.647 918.94 221.172 916.376 217.698 906.202 204.009 895.16 190.692 881.387 180.52 867.242 170.013 850.202 163.933 832.46 164.925 823.22 165.455 814.166 167.742 805.784 171.666 797.43 175.636 790.109 181.385 783.161 187.382 776.171 193.382 769.471 199.748 761.861 204.959 754.271 210.13 745.808 213.885 736.881 216.043 718.601 220.551 699.493 219.393 680.881 219.062 663.138 218.731 645.437 219.227 628.19 224.025 597.047 232.669 570.206 251.694 544.19 270.14 517.762 288.917 490.838 308.397 459.49 317.992 457.877 318.447 457.339 320.928 458.99 321.756 460.396 322.456 461.761 323.121 463.167 323.824 465.524 325.024 467.634 321.467 465.235 320.267 463.829 319.567 462.464 318.902 461.058 318.199 460.893 319.44 460.727 320.722 460.558 321.963 464.322 320.846 468.003 319.563 471.642 318.163 501.71 306.5 527.6 286.813 553.78 268.409 579.505 250.335 606.636 232.386 637.944 225.934 655.976 222.212 674.422 223.122 692.703 223.452 710.611 223.783 729.14 223.7 746.221 217.579 754.525 214.51 762.289 210.14 769.221 204.634 776.335 199.092 782.869 192.847 789.821 187.098 797.1 181.142 804.921 175.89 813.85 172.788 822.573 169.769 831.812 168.532 841.022 169.148 877.21 171.625 900.991 203.182 920.388 230.23 921.96 232.381 925.516 230.313 923.988 228.162Z" fill="#C3C3C7"/><path d="M925.888 198.259C922.059 193.701 917.942 189.392 913.563 185.359 877.216 152.136 825.979 140.675 778.941 155.247 754.705 162.857 734.481 177.047 716.655 194.868 698.085 213.438 681.211 233.952 658.055 247.104 607.598 275.724 547.297 270.389 491.711 267.37 435.877 264.309 380.374 267.701 325.781 279.695 272.133 291.47 220.41 310.739 172.134 336.935 171.845 337.1 172.093 337.555 172.382 337.39 178.296 334.164 184.265 331.048 190.29 328.043 239.412 303.558 291.733 286.1 345.715 276.18 372.882 271.181 400.369 268.114 427.97 267 456.714 265.883 485.293 267.538 513.996 269.109 566.066 271.921 623.182 272.294 667.973 241.482 688.697 227.21 704.33 207.11 722.445 189.905 741.511 171.79 764.134 158.679 789.901 152.805 839.738 141.474 892.677 159.589 925.557 198.632 925.764 198.88 926.136 198.508 925.888 198.26Z" fill="#C3C3C7"/></g></svg>